# AST/ASF file generated using VICON BodyLanguage
# -----------------------------------------------
:version 1.10
:name VICON
:units
  mass 1.0
  length 0.45
  angle deg
:documentation
   .ast/.asf automatically generated from VICON data using
   VICON BodyBuilder and BodyLanguage model FoxedUp or BRILLIANT.MOD
:root
   order TX TY TZ RX RY RZ
   axis XYZ
   position 0 0 0  
   orientation 0 0 0 
:bonedata
  begin
     id 1 
     name lhipjoint
     direction 0.711131 -0.61297 0.344326 
     length 2.29162 
     axis 0 0 0  XYZ
  end
  begin
     id 2 
     name lfemur
     direction 0.34202 -0.939693 0  
     length 6.71424  
     axis 0 0 20  XYZ
    dof rx ry rz
    limits (-160.0 20.0)
           (-70.0 70.0)
           (-60.0 70.0)
  end
  begin
     id 3 
     name ltibia
     direction 0.34202 -0.939693 0   
     length 6.7087   
     axis 0 0 20   XYZ
    dof rx
    limits (-10.0 170.0)
  end
  begin
     id 4 
     name lfoot
     direction 0.0230374 -0.0632947 0.997729   
     length 1.56743   
     axis -90 7.62852e-016 20   XYZ
    dof rx rz
    limits (-45.0 90.0)
           (-70.0 20.0)
  end
  begin
     id 5 
     name ltoes
     direction 1.53585e-011 -4.21885e-011 1   
     length 0.802914   
     axis -90 7.62852e-016 20   XYZ
    dof rx
    limits (-90.0 20.0)
  end
  begin
     id 6 
     name rhipjoint
     direction -0.733192 -0.592884 0.333043   
     length 2.36925  
     axis 0 0 0  XYZ 
  end
  begin
     id 7 
     name rfemur
     direction -0.34202 -0.939693 0   
     length 6.67027   
     axis 0 0 -20   XYZ
    dof rx ry rz
    limits (-160.0 20.0)
           (-70.0 70.0)
           (-70.0 60.0)
  end
  begin
     id 8 
     name rtibia
     direction -0.34202 -0.939693 0   
     length 6.6862   
     axis 0 0 -20   XYZ
    dof rx
    limits (-10.0 170.0)
 end
 begin
     id 9 
     name rfoot
     direction -0.0949739 -0.260939 0.960672   
     length 1.67698  
     axis -90 -7.62852e-016 -20   XYZ
    dof rx rz
    limits (-45.0 90.0)
           (-20.0 70.0)
  end
  begin
     id 10 
     name rtoes
     direction -1.5353e-011 -4.21868e-011 1   
     length 0.846298   
     axis -90 -7.62852e-016 -20   XYZ
    dof rx
    limits (-90.0 20.0)
  end
  begin
     id 11 
     name lowerback
     direction -0.0206828 0.999785 -0.00109866   
     length 2.04382   
     axis 0 0 0   XYZ
    dof rx ry rz
    limits (-20.0 45.0)
           (-30.0 30.0)
           (-30.0 30.0)
  end
  begin
     id 12 
     name upperback
     direction -0.0105003 0.999727 -0.0208904   
     length 2.04538   
     axis 0 0 0   XYZ
    dof rx ry rz
    limits (-20.0 45.0)
           (-30.0 30.0)
           (-30.0 30.0)
  end
  begin
     id 13 
     name thorax
     direction -0.000416255 0.999808 -0.0196023   
     length 2.0399   
     axis 0 0 0   XYZ
    dof rx ry rz
    limits (-20.0 45.0)
           (-30.0 30.0)
           (-30.0 30.0)
  end
  begin
     id 14 
     name lowerneck
     direction 0.0627861 0.989205 0.13241   
     length 1.46207   
     axis 0 0 0   XYZ
    dof rx ry rz
    limits (-20.0 45.0)
           (-30.0 30.0)
           (-30.0 30.0)
  end
  begin
     id 15 
     name upperneck
     direction 0.00627179 0.994526 0.104303   
     length 1.41419   
     axis 0 0 0   XYZ
    dof rx ry rz
    limits (-20.0 45.0)
           (-30.0 30.0)
           (-30.0 30.0)
  end
  begin
     id 16
     name head
     direction -0.00443838 0.999688 0.0245968  
     length 1.50718  
     axis 0 0 0   XYZ
    dof rx ry rz
    limits (-20.0 45.0)
           (-30.0 30.0)
           (-30.0 30.0)
  end
  begin
     id 17 
     name lclavicle
     direction 0.758742 0.650995 -0.0227258  
     length 2.86888  
     axis 0 0 0   XYZ
    dof ry rz
    limits (-20.0 10.0)
           (0.0 20.0)
  end
  begin
     id 18 
     name lhumerus
     direction 1 -4.48962e-011 1.06664e-027   
     length 4.65776   
     axis -180 -30 -90   XYZ
    dof rx ry rz
    limits (-60.0 90.0)
           (-90.0 90.0)
           (-90.0 90.0)
  end
  begin
     id 19
     name lradius
     direction 1 -4.48968e-011 1.40404e-026   
     length 3.55539   
     axis -180 -30 -90   XYZ
    dof rx
    limits (-10.0 170.0)
  end
  begin
     id 20
     name lwrist
     direction 1 -4.48976e-011 3.32647e-026   
     length 1.77769   
     axis -2.20186e-014 90 90   XYZ
    dof ry
    limits (-180.0 0.0)
 end
  begin
     id 21 
     name lhand
     direction 1 -4.48982e-011 6.65293e-026   
     length 0.707264   
     axis -4.24514e-014 90 90   XYZ
    dof rx rz
    limits (-90.0 90.0)
           (-45.0 45.0)
  end
  begin
     id 22 
     name lfingers
     direction 1 -4.48966e-011 1.33059e-025   
     length 0.570215   
     axis -8.49028e-014 90 90   XYZ
    dof rx
    limits (0.0 90.0)
  end
  begin
     id 23
     name lthumb
     direction 0.707107 -6.3493e-011 0.707107   
     length 0.818718   
     axis -90 45 2.85299e-015   XYZ
    dof rx rz
    limits (-45.0 45.0)
           (-45.0 45.0)
  end
  begin
     id 24 
     name rclavicle
     direction -0.870343 0.482028 -0.100759   
     length 3.2251  
     axis 0 0 0   XYZ 
    dof ry rz
    limits (-10.0 20.0)
           (-20.0 0.0)
  end
  begin
     id 25 
     name rhumerus
     direction -1 -4.48974e-011 -9.45849e-028  
     length 4.71925   
     axis -180 30 90   XYZ
    dof rx ry rz
    limits (-90.0 60.0)
           (-90.0 90.0)
           (-90.0 90.0)
  end
  begin
     id 26 
     name rradius
     direction -1 -4.48965e-011 1.17607e-026   
     length 3.5699   
     axis -180 30 90   XYZ
    dof rx
    limits (-10.0 170.0)
  end
  begin
     id 27 
     name rwrist
     direction -1 -4.48968e-011 3.32647e-026   
     length 1.78495   
     axis -2.20186e-014 -90 -90   XYZ
    dof ry
    limits (-180.0 0.0)
  end
  begin
     id 28
     name rhand
     direction -1 -4.48995e-011 6.65293e-026   
     length 0.507757   
     axis -4.24514e-014 -90 -90   XYZ
    dof rx rz
    limits (-90.0 90.0)
           (-45.0 45.0)
  end
  begin
     id 29
     name rfingers
     direction -1 -4.48864e-011 1.33059e-025   
     length 0.409367   
     axis -8.49028e-014 -90 -90   XYZ
    dof rx
    limits (0.0 90.0)
  end
  begin
     id 30
     name rthumb
     direction -0.707107 -6.3494e-011 0.707107   
     length 0.587771   
     axis -90 -45 -2.85299e-015   XYZ
    dof rx rz
    limits (-45.0 45.0)
           (-45.0 45.0)
  end
:hierarchy
  begin
    root lhipjoint rhipjoint lowerback
    lhipjoint lfemur
    lfemur ltibia
    ltibia lfoot
    lfoot ltoes
    rhipjoint rfemur
    rfemur rtibia
    rtibia rfoot
    rfoot rtoes
    lowerback upperback
    upperback thorax
    thorax lowerneck lclavicle rclavicle
    lowerneck upperneck
    upperneck head
    lclavicle lhumerus
    lhumerus lradius
    lradius lwrist
    lwrist lhand lthumb
    lhand lfingers
    rclavicle rhumerus
    rhumerus rradius
    rradius rwrist
    rwrist rhand rthumb
    rhand rfingers
  end

#!OML:ASF E:\Steps\Project 1\Capture day 1\Session 2\Subject.ASF
:FULLY-SPECIFIED
:DEGREES
1
root 8.62134 16.3039 31.4018 -153.167 -1.68485 178.841
lowerback -29.7043 -1.16652 -7.04178
upperback -1.64318 0.0945202 0.107986
thorax 13.7568 -0.685413 3.90724
lowerneck -3.82677 -2.23713 -2.11174
upperneck 25.7767 -6.41299 3.84016
head 8.84919 -3.75128 0.968072
rclavicle -9.44227e-016 2.3059e-014
rhumerus -44.4918 -30.5382 -65.3377
rradius 24.6434
rwrist 8.56196
rhand -8.75417 -53.4649
rfingers 7.12502
rthumb 17.1831 -82.7251
lclavicle -9.44227e-016 2.3059e-014
lhumerus -36.6038 27.1006 65.9762
lradius 10.9325
lwrist -27.0541
lhand -19.8079 -9.53546
lfingers 7.12502
lthumb 6.52528 20.344
rfemur -24.0857 6.45726 19.8703
rtibia 7.3937
rfoot -19.7826 -12.5562
rtoes -38.3554
lfemur -25.7961 -9.0943 -18.6057
ltibia 9.04697
lfoot -8.55397 3.3412
ltoes -44.7091
2
root 8.62182 16.3009 31.3971 -153.037 -1.57553 178.877
lowerback -29.9075 -1.12912 -7.01197
upperback -1.62127 0.149797 0.0719491
thorax 13.8672 -0.664767 3.87124
lowerneck -4.07718 -2.14701 -2.12681
upperneck 25.9555 -6.3355 3.98584
head 8.96071 -3.69872 1.01855
rclavicle -1.0635e-014 5.96354e-015
rhumerus -44.9193 -31.1549 -64.7337
rradius 24.236
rwrist 9.06892
rhand -8.61831 -53.2766
rfingers 7.12502
rthumb 17.3138 -82.5254
lclavicle -1.0635e-014 5.96354e-015
lhumerus -37.365 28.6285 64.5747
lradius 10.5673
lwrist -29.1214
lhand -19.6617 -9.36806
lfingers 7.12502
lthumb 6.66639 20.507
rfemur -24.2456 6.51042 19.8605
rtibia 7.4122
rfoot -19.8657 -12.4389
rtoes -38.1626
lfemur -25.9079 -9.04984 -18.5573
ltibia 9.03425
lfoot -8.60003 3.44851
ltoes -44.375
3
root 8.62361 16.3011 31.3948 -153.013 -1.59479 178.855
lowerback -29.929 -1.14844 -7.04544
upperback -1.59978 0.144529 0.0436067
thorax 13.9015 -0.669337 3.85645
lowerneck -4.21136 -2.07645 -2.06936
upperneck 26.0472 -6.26859 4.05882
head 9.01621 -3.65292 1.03541
rclavicle 8.99501e-015 -2.04748e-014
rhumerus -45.3565 -31.9606 -63.9935
rradius 23.7208
rwrist 9.93218
rhand -8.47404 -53.0494
rfingers 7.12502
rthumb 17.4527 -82.2859
lclavicle 8.99501e-015 -2.04748e-014
lhumerus -37.9868 29.6091 63.5065
lradius 10.2477
lwrist -30.5583
lhand -19.6854 -9.57355
lfingers 7.12502
lthumb 6.64354 20.3022
rfemur -24.234 6.57339 19.8094
rtibia 7.36822
rfoot -19.979 -12.4068
rtoes -37.8491
lfemur -25.9225 -9.05414 -18.5622
ltibia 9.02257
lfoot -8.56736 3.41692
ltoes -43.7015
4
root 8.62218 16.3014 31.3934 -152.988 -1.60173 178.872
lowerback -29.9393 -1.14475 -7.02583
upperback -1.58392 0.149181 0.0224399
thorax 13.9242 -0.665899 3.82479
lowerneck -3.9636 -2.15904 -1.78979
upperneck 25.859 -6.33563 3.79066
head 8.89002 -3.68697 0.899311
rclavicle -1.68967e-015 1.0138e-014
rhumerus -45.6905 -32.623 -63.388
rradius 23.2203
rwrist 10.601
rhand -7.94155 -52.98
rfingers 7.12502
rthumb 17.9651 -82.1703
lclavicle -1.68967e-015 1.0138e-014
lhumerus -38.1871 29.5089 63.2044
lradius 9.89873
lwrist -30.6452
lhand -19.7215 -9.83675
lfingers 7.12502
lthumb 6.60863 20.0401
rfemur -24.2277 6.66281 19.801
rtibia 7.32157
rfoot -19.9192 -12.4984
rtoes -37.7925
lfemur -25.9394 -9.10616 -18.5253
ltibia 9.00663
lfoot -8.55822 3.43188
ltoes -43.6268
5
root 8.62091 16.3023 31.3901 -152.974 -1.62885 178.892
lowerback -29.9508 -1.16384 -7.01242
upperback -1.5755 0.121825 0.023655
thorax 13.9425 -0.677766 3.80821
lowerneck -4.10078 -2.0309 -1.85354
upperneck 25.8243 -6.1965 4.09197
head 8.91009 -3.59174 1.02246
rclavicle -1.59028e-015 -3.37934e-015
rhumerus -45.9556 -32.9368 -63.0327
rradius 22.8731
rwrist 10.6742
rhand -7.08915 -52.4582
rfingers 7.12502
rthumb 18.7851 -81.5712
lclavicle -1.59028e-015 -3.37934e-015
lhumerus -38.244 29.4522 62.9033
lradius 9.25304
lwrist -30.613
lhand -19.6915 -9.94684
lfingers 7.12502
lthumb 6.63766 19.9291
rfemur -24.1721 6.73074 19.8143
rtibia 7.2213
rfoot -19.8726 -12.5916
rtoes -37.9485
lfemur -25.9195 -9.1481 -18.4921
ltibia 8.96686
lfoot -8.58747 3.45685
ltoes -44.1295
6
root 8.62552 16.303 31.383 -153.024 -1.7255 178.899
lowerback -29.9028 -1.22594 -7.07212
upperback -1.56933 0.0555917 0.0627719
thorax 13.9351 -0.710355 3.85802
lowerneck -3.94696 -2.1587 -1.52811
upperneck 25.7498 -6.2819 3.56666
head 8.83216 -3.65312 0.786687
rclavicle -1.49089e-015 3.97569e-015
rhumerus -46.2584 -32.9172 -62.834
rradius 22.7138
rwrist 10.5582
rhand -6.85462 -52.3425
rfingers 7.12502
rthumb 19.0106 -81.4334
lclavicle -1.49089e-015 3.97569e-015
lhumerus -38.2565 29.4732 62.7444
lradius 8.54918
lwrist -30.5904
lhand -19.8699 -9.862
lfingers 7.12502
lthumb 6.46537 20.0193
rfemur -24.0103 6.88857 19.8383
rtibia 7.11609
rfoot -19.9463 -12.7908
rtoes -37.8788
lfemur -25.7815 -9.27891 -18.4102
ltibia 8.86132
lfoot -8.63921 3.48668
ltoes -43.9875
7
root 8.61944 16.3026 31.3847 -152.87 -1.63089 178.986
lowerback -29.957 -1.1167 -6.9072
upperback -1.64701 0.132713 0.0294863
thorax 13.8627 -0.666968 3.76043
lowerneck -4.05186 -2.13103 -1.50441
upperneck 25.8002 -6.24991 3.59099
head 8.86839 -3.63008 0.790693
rclavicle -1.08338e-014 -1.98785e-015
rhumerus -46.6956 -32.9319 -62.5676
rradius 22.6405
rwrist 10.7274
rhand -7.44614 -52.9311
rfingers 7.12502
rthumb 18.4417 -82.077
lclavicle -1.08338e-014 -1.98785e-015
lhumerus -38.2164 29.4724 62.7009
lradius 7.90907
lwrist -30.6656
lhand -20.1639 -9.93687
lfingers 7.12502
lthumb 6.18155 19.9529
rfemur -24.3209 6.73074 19.922
rtibia 7.32518
rfoot -19.9737 -12.5318
rtoes -37.8621
lfemur -25.9827 -9.43098 -18.2732
ltibia 8.91012
lfoot -8.69242 3.71193
ltoes -43.3941
8
root 8.61736 16.3034 31.385 -152.727 -1.56691 179.015
lowerback -30.0428 -1.06794 -6.86685
upperback -1.68569 0.179004 0.0180532
thorax 13.8515 -0.64654 3.74234
lowerneck -4.01337 -2.17776 -1.39008
upperneck 25.7553 -6.28995 3.46146
head 8.83934 -3.6494 0.725776
rclavicle -8.49804e-015 -3.61788e-014
rhumerus -47.099 -33.2925 -62.0363
rradius 22.4059
rwrist 11.3982
rhand -8.19327 -52.9682
rfingers 7.12502
rthumb 17.7229 -82.1805
lclavicle -8.49804e-015 -3.61788e-014
lhumerus -38.4263 29.5031 62.6784
lradius 7.89992
lwrist -30.8348
lhand -20.1977 -9.57576
lfingers 7.12502
lthumb 6.149 20.315
rfemur -24.5476 6.68612 19.9338
rtibia 7.43516
rfoot -19.9206 -12.4316
rtoes -37.981
lfemur -26.2173 -9.18966 -18.3051
ltibia 9.06876
lfoot -8.71885 3.5482
ltoes -43.0749
9
root 8.61688 16.3051 31.3847 -152.693 -1.56369 178.988
lowerback -30.0455 -1.07556 -6.87104
upperback -1.68579 0.170511 0.0173359
thorax 13.8534 -0.65075 3.74044
lowerneck -4.07252 -2.18752 -1.53535
upperneck 25.6873 -6.30749 3.63975
head 8.83719 -3.64817 0.808958
rclavicle -5.31749e-015 -7.95139e-016
rhumerus -47.4673 -33.7656 -61.4274
rradius 22.1517
rwrist 12.086
rhand -8.50118 -52.7969
rfingers 7.12502
rthumb 17.4266 -82.0357
lclavicle -5.31749e-015 -7.95139e-016
lhumerus -39.0482 29.5629 62.5952
lradius 8.63971
lwrist -30.9897
lhand -19.9472 -9.03785
lfingers 7.12502
lthumb 6.3908 20.8457
rfemur -24.6286 6.65217 19.9036
rtibia 7.5309
rfoot -19.9423 -12.4206
rtoes -37.7704
lfemur -26.2703 -8.98948 -18.4037
ltibia 9.11304
lfoot -8.71333 3.32974
ltoes -43.0044
10
root 8.61608 16.3067 31.3785 -152.862 -1.57231 178.923
lowerback -29.8906 -1.06724 -6.8686
upperback -1.65383 0.187386 -0.0285578
thorax 13.8192 -0.636849 3.69819
lowerneck -3.91851 -2.32464 -1.3743
upperneck 25.5545 -6.45594 3.4283
head 8.75544 -3.72425 0.703033
rclavicle -1.83876e-015 -7.95139e-016
rhumerus -47.844 -34.0641 -61.0536
rradius 22.072
rwrist 12.2183
rhand -8.14237 -52.9681
rfingers 7.12502
rthumb 17.7718 -82.176
lclavicle -1.83876e-015 -7.95139e-016
lhumerus -39.4959 29.5509 62.4677
lradius 9.05031
lwrist -31.0989
lhand -19.754 -8.95169
lfingers 7.12502
lthumb 6.57731 20.9262
rfemur -24.3754 6.60531 19.857
rtibia 7.46429
rfoot -19.9296 -12.49
rtoes -37.7172
lfemur -26.011 -9.02016 -18.5168
ltibia 9.03802
lfoot -8.70072 3.25524
ltoes -43.0791
11
root 8.61944 16.3074 31.3791 -152.881 -1.70031 178.793
lowerback -29.7883 -1.15579 -7.02964
upperback -1.66082 0.1199 -0.027173
thorax 13.7697 -0.673822 3.76133
lowerneck -3.97088 -2.3154 -1.53328
upperneck 25.438 -6.44519 3.6614
head 8.73684 -3.70381 0.810363
rclavicle -2.38542e-015 1.21259e-014
rhumerus -47.9748 -34.0991 -60.9909
rradius 22.0325
rwrist 11.9238
rhand -7.52604 -53.1143
rfingers 7.12502
rthumb 18.3648 -82.2674
lclavicle -2.38542e-015 1.21259e-014
lhumerus -39.6981 29.5417 62.3505
lradius 9.11732
lwrist -31.2046
lhand -19.4547 -8.43831
lfingers 7.12502
lthumb 6.86626 21.4303
rfemur -24.2613 6.71646 19.7089
rtibia 7.32863
rfoot -19.902 -12.7948
rtoes -37.7401
lfemur -26.0686 -9.01604 -18.6412
ltibia 9.17329
lfoot -8.72637 3.06097
ltoes -42.9356
12
root 8.61717 16.3084 31.375 -152.9 -1.65907 178.871
lowerback -29.8146 -1.12107 -6.97058
upperback -1.63361 0.147413 0.017402
thorax 13.8117 -0.659158 3.78925
lowerneck -3.94644 -2.3601 -1.55703
upperneck 25.3198 -6.474 3.65014
head 8.6925 -3.71519 0.81095
rclavicle 3.03147e-015 4.37326e-015
rhumerus -48.0828 -34.2737 -60.7604
rradius 21.8731
rwrist 11.9605
rhand -7.15077 -52.8844
rfingers 7.12502
rthumb 18.7258 -82.0031
lclavicle 3.03147e-015 4.37326e-015
lhumerus -39.9377 29.537 62.2379
lradius 9.31741
lwrist -31.3576
lhand -19.0534 -9.11976
lfingers 7.12502
lthumb 7.25358 20.7359
rfemur -24.2564 6.73467 19.7854
rtibia 7.35362
rfoot -20.0174 -12.7042
rtoes -37.5992
lfemur -26.0246 -9.06416 -18.5474
ltibia 9.14059
lfoot -8.72862 3.25929
ltoes -42.9655
13
root 8.61732 16.3088 31.3798 -152.794 -1.69559 178.957
lowerback -29.81 -1.09385 -6.89339
upperback -1.66902 0.146573 0.0465479
thorax 13.7703 -0.65518 3.77844
lowerneck -3.92924 -2.40512 -1.55604
upperneck 25.2253 -6.52109 3.66992
head 8.65885 -3.73136 0.815459
rclavicle -3.18055e-015 0
rhumerus -48.2268 -34.4728 -60.5188
rradius 21.7089
rwrist 12.0668
rhand -6.91181 -52.4709
rfingers 7.12502
rthumb 18.9556 -81.5672
lclavicle -3.18055e-015 0
lhumerus -40.1666 29.497 62.1361
lradius 9.57678
lwrist -31.5135
lhand -18.6658 -9.29707
lfingers 7.12502
lthumb 7.62776 20.5454
rfemur -24.4653 6.60432 19.9153
rtibia 7.48538
rfoot -20.1392 -12.4823
rtoes -37.295
lfemur -26.2099 -8.99887 -18.4283
ltibia 9.21367
lfoot -8.70832 3.24539
ltoes -43.1187
